Patient4_TMGait_0pt6_01_left_13_EMG.mot
version=1
nRows=20
nColumns=33
inDegrees=no
endheader
time	1LAddLong	2LGlutMax	3LGlutMed	4LIliopsoas	5LSemiMemb	6LBicFemLong	7LRecFem	8LVastMed	9LVastLat	10LGasMed	11LTibAnt	12lTibPost	13LPeroneusLong	14LSol	15LExtDigLong	16LFlexDigLong	17RAddLong	18RGlutMax	19RGlutMed	20RIliopsoas	21RSemiMemb	22RBicFemLong	23RRecFem	24RVastMed	25RVastLat	26RGasMed	27RTibAnt	28RTibPost	29RPeroneusLong	30RSol	31RExtDigLong	32RFlexDigLong
17.068	0.008392	-0.15503	-0.031738	0.010223	-0.004578	0.000763	0.015411	0.00061	0.022736	-0.027466	0.004578	0.009308	-0.011139	-0.099487	0.010071	-0.006256	-0.019989	-0.12192	-0.026703	0.001221	-0.055847	-0.027771	-0.002747	0.057373	0.083771	-0.030212	0.094757	-0.19363	0.14694	-0.81757	-0.001526	-0.007629
17.069	0.008087	-0.15701	-0.041962	0.005646	0.014496	0.009155	0.016632	-0.008545	0.03952	-0.033569	0.005798	0.019989	-0.01709	-0.08194	0.00061	-0.002594	-0.018616	-0.10101	0.02182	-0.001526	0.044708	-0.042725	0.050354	0.056152	0.026855	-0.093079	-0.018311	0.067139	-0.069275	-0.58197	0.001678	-0.009155
17.07	0.006714	-0.17044	-0.066223	0.010376	0.023193	0.01358	0.000763	0.002136	0.029144	-0.030975	0.006866	0.016785	-0.013885	-0.13168	-0.011597	-0.011902	-0.023346	-0.11887	0.007782	0.019073	0.071564	-0.050507	0.006561	-0.029755	0.036316	-0.080414	0.39063	0.4422	-0.25207	-0.1622	-0.003052	-0.008392
17.071	0.001831	-0.16159	-0.072784	0.002594	0.019226	0.010986	0.012665	0.001526	0.028992	-0.021973	0.010834	0.015411	0.026855	-0.14801	0.00061	-0.00061	0.00412	-0.082703	0.15564	0.057373	0.00061	-0.065155	0.053864	0.07843	0.099335	-0.041809	0.60089	0.14938	-0.24307	0.25971	0.000305	-0.015259
17.072	0.003967	-0.16159	-0.082855	0.014648	-0.002441	-0.017395	0.018463	0.010223	0.031281	-0.032196	-0.000305	0.014343	0.028076	-0.10529	0.007782	0.000153	-0.014496	-0.07309	0.15533	0.073853	-0.099335	-0.08728	0.025787	0.073547	0.092163	0.005798	0.29739	0.069427	-0.01236	0.22644	-0.000458	-0.007935
17.073	0.018158	-0.16693	-0.049133	0.005341	0.00473	0.013123	0.005341	0.008545	0.027161	-0.022583	0.00473	0.006409	-0.02243	-0.066376	0.00885	-0.001678	-0.014648	-0.061035	0.20355	0.034027	-0.035553	-0.03952	-0.21683	-0.018005	0.075378	0.038757	-0.77438	-0.050201	0.19898	-0.070648	0.000763	-0.001831
17.074	0.004578	-0.15717	-0.032349	0.012207	0.028229	0.024109	0.017242	0.004272	0.028534	-0.018311	0.007782	0.015564	-0.06012	-0.026703	0.00885	0.005035	0.005646	-0.070648	0.1535	0.021515	0.076752	-0.040894	-0.1889	0.041199	0.054932	0.037689	-0.44998	-0.11902	0.024719	0.004272	-0.001068	-0.001678
17.075	0.004425	-0.15991	-0.097504	0.010681	0.032196	0.057983	-0.000458	0.011597	0.021057	-0.018463	0.014191	0.010376	-0.048828	0.001068	0.017395	0.004425	0.017853	-0.046234	0.064392	0.008087	0.073242	-0.044098	0.028687	0.037384	0.03479	0.031586	-0.40176	0.006104	0.050659	0.5365	0.000458	0.000305
17.076	0.002899	-0.13565	-0.092773	0.00412	-0.024719	0.07309	0.005951	0.00824	0.033722	-0.025482	0.011444	0.009613	-0.050201	-0.017548	0.003662	0.019226	0.001526	-0.077515	0.068817	0.020294	0.029602	-0.002441	0.11673	-0.000916	0.034027	0.037079	-0.068665	0.12177	0.13321	1.111	-0.005493	0.00412
17.077	0.005493	-0.13641	-0.16266	0.018921	0.006866	0.083313	0.005646	0.006866	0.031281	-0.023041	0.00885	0.008698	-0.048676	-0.093079	0.004272	0.016632	-0.017853	-0.092621	0.075684	0.020752	-0.033264	0.03418	0.13336	-0.043488	0.05722	0.009766	-0.21545	0.074158	0.080719	1.3519	-0.005035	-0.000305
17.078	-0.003662	-0.13672	-0.18692	0.011902	-0.061646	0.078888	-0.002136	0.005798	0.033264	-0.012665	0.002136	0.010071	-0.045624	-0.13077	0.005951	0.023499	-0.019073	-0.094147	0.1091	0.020752	0.031128	0.059509	0.10223	-0.053711	0.087128	-0.016327	-0.16159	0.010223	0.11536	1.1342	-0.000305	-0.002594
17.079	0.002594	-0.12909	-0.1828	0.010834	-0.11658	0.010223	0.01236	0.003052	0.035858	-0.015564	0.01297	0.00824	-0.017548	-0.12421	0.003815	0.021515	-0.020142	-0.056458	0.07782	0.002289	0.095673	0.040588	-0.001373	-0.10864	0.0354	-0.022888	-0.31097	-0.033112	0.25253	0.60394	-0.001526	-0.009308
17.08	0.015106	-0.14023	-0.070801	-0.004425	-0.06073	-0.058899	0.010986	0.002747	0.034943	-0.009766	0.005646	0.01297	-0.013885	-0.11276	0.01297	0.018463	-0.004272	-0.12207	0.02533	-0.020599	0.087433	0.048676	-0.22675	-0.12894	-0.039063	-0.010986	-0.62912	-0.056	0.33249	-0.20615	-0.002747	-0.018311
17.081	0.013428	-0.12985	-0.077972	-0.014191	0.11215	-0.027924	0.012054	0.012665	0.039368	-0.003357	0.000916	0.009918	0.03006	-0.085754	0.011292	0.018768	0.009766	-0.091553	0.12314	-0.067139	0.028992	0.097961	-0.44403	0.033569	-0.14801	0.03479	-0.40955	0.01297	0.18555	-0.82581	-0.005493	-0.005798
17.082	0.016785	-0.072479	-0.1268	0.000153	0.12421	0.007629	0.012054	0	0.036926	-0.005188	0.002594	0.001984	0.004425	-0.046692	0.011597	0.018616	0.016632	-0.017242	0.16769	-0.028992	-0.091705	0.097504	-0.2977	0.22446	-0.059052	0.069427	-0.069885	-0.015869	-0.15793	-1.1432	-0.001373	-0.008698
17.083	0.018768	-0.099945	-0.11917	-0.005035	0.059509	0.04837	0.00885	0.003052	0.031586	-0.005798	0.007782	0.003967	-0.029602	-0.079498	-0.010376	0.025024	0.043335	-0.029449	0.10468	-0.059814	-0.057831	0.091095	-0.060577	0.28137	0.030212	0.072937	-0.040894	-0.042419	-0.5246	-1.0332	-0.001831	-0.011902
17.084	0.009155	-0.13016	-0.065918	0.017242	0.015106	0.0914	0.00061	0.00351	0.042114	-0.008392	0.008545	0.005035	-0.066376	-0.078125	-0.013275	0.02655	0.036316	0.01297	0.071716	-0.069427	-0.079651	0.14557	0.089264	0.15213	0.081177	-0.013733	-0.07782	-0.049133	-0.20157	-1.1501	-0.003052	-0.007477
17.085	0.00061	-0.11276	-0.030823	0.006104	0.000153	0.095215	0.005646	0.001068	0.031128	-0.011444	0.015259	0.023499	-0.082855	-0.12299	-0.009766	0.020142	0.020905	-0.023346	0.086212	-0.032349	-0.29266	0.24765	0.14862	0.11612	0.29083	-0.098877	-0.28305	-0.049438	0.10086	-0.92438	-0.004272	-0.005493
17.086	0.005798	-0.15823	0.073547	0.003815	-0.002136	0.093536	-0.005035	0.005493	0.021057	-0.018311	0.009613	0.002289	-0.063629	-0.17914	0.001678	0.016022	0.002899	-0.098267	0.11871	0.062256	-0.096741	0.25711	0.15167	-0.016327	0.23438	-0.085754	-0.84564	-0.16052	0.35706	-0.43655	0.000305	-0.015259
17.087	0.006256	-0.13046	0.14984	-0.003662	0.014191	0.076752	-0.013275	0.006409	0.032806	-0.026855	0.005951	0.004578	-0.048065	-0.19104	-0.001068	0.01236	0.000305	-0.027924	0.12177	0.078125	0.050964	0.20737	0.15274	-0.084686	0.11566	-0.020447	-0.95367	-0.13672	0.2124	-0.14648	-0.003662	-0.010071
